<svg xmlns="http://www.w3.org/2000/svg" xmlns:xlink="http://www.w3.org/1999/xlink" viewBox="0 0 186.46 184.8"><defs><style>.cls-1{fill:url(#radial-gradient);}.cls-2{fill:url(#linear-gradient);}</style><radialGradient id="radial-gradient" cx="85.06" cy="112.69" r="0.01" gradientUnits="userSpaceOnUse"><stop offset="0.15" stop-color="#6200ff"/><stop offset="0.98" stop-color="#ff0f69"/></radialGradient><linearGradient id="linear-gradient" x1="40.57" y1="16.34" x2="146.46" y2="167.56" gradientUnits="userSpaceOnUse"><stop offset="0" stop-color="#ff0f69"/><stop offset="0.9" stop-color="#6200ff"/></linearGradient></defs><g id="Layer_2" data-name="Layer 2"><g id="Design"><path class="cls-1" d="M85.06,112.69h0Z"/><path class="cls-2" d="M150.5,36.93c-1.06-.9-2.15-1.79-3.27-2.65,1.25.77,2.48,1.58,3.71,2.43a85.38,85.38,0,0,1,35.52,55.37,93.17,93.17,0,0,0-40.15-77.2l-.48-.33c-37.11-25.38-88-16.78-114.17,19.77l-.78,1.11a85.61,85.61,0,0,0,18,116.5q-1.87-1.16-3.7-2.43A85.59,85.59,0,0,1,23.6,30.39q1.61-2.33,3.35-4.5A93.29,93.29,0,0,0,40,168.14a92.92,92.92,0,0,0,69,15.29l7.51-1.61.56-.15C182.32,164.41,201.84,80.69,150.5,36.93Zm-4.28,77.69C144.6,128.77,135.58,141,124.15,149a51,51,0,0,1-7,4.15c-11.72,5.66-24.75,6.12-37.7,1.87-21.91-7.2-35.38-32.67-30.05-54.85,4.15-17.29,16.25-30.37,23.9-46,2.2-4.5,4.42-10.23,1.77-15,0,0,10.9,8.46,10.9,20.52,0,0,13.34-12.89,11.86-40.83,0,.46,1.93,1.82,2.25,2.12q3.09,3,6,6.14a208.2,208.2,0,0,1,18,21.94C137.49,67.92,148.94,90.9,146.22,114.62Zm-56.95-.84a10.41,10.41,0,1,1-10.41-10.54A10.48,10.48,0,0,1,89.27,113.78Zm28.07-10.54a10.54,10.54,0,1,1-10.4,10.54A10.48,10.48,0,0,1,117.34,103.24Z"/></g></g></svg>