<svg xmlns:xlink="http://www.w3.org/1999/xlink" preserveAspectRatio="xMidYMid meet" data-bbox="0 0 731.432 250" xmlns="http://www.w3.org/2000/svg" viewBox="0 0 732 250" height="250" width="732" data-type="ugc" role="presentation" aria-hidden="true" aria-labelledby="svgcid-dfyc55-5giuub"><title id="svgcid-dfyc55-5giuub"></title>
    <g>
        <path fill="#FFFFFF" d="M342.84 166.971H292V83h50.176c18.824 0 29.737 5.34 35.309 14.866 3.955 6.091 5.341 13.798 5.341 26.008 0 12.932-1.386 20.87-5.139 27.077-5.428 10.247-16.254 16.02-34.847 16.02zm23.645-42.664c-.115-8.025-1.068-14.346-3.638-17.868-3.955-6.206-10.797-9.093-22.778-9.093h-31.7v55.192h31.036c12.616 0 19.805-2.886 23.644-9.093 2.685-3.839 3.436-10.709 3.436-19.138z"></path>
        <path fill="#FFFFFF" d="M404.362 166.971H387.04L431.125 83h19.487l42.699 83.971h-17.87l-9.845-19.802h-51.071l-10.163 19.802zm39.61-62.668l-3.522-7.707-3.522 7.823-22.403 42.75h51.071l-21.624-42.866z"></path>
        <path fill="#FFFFFF" d="M601.603 166.971H581.48l-20.988-64.602L539.185 167h-20.209l-32.305-84h17.87l25.031 67.085L550.878 83h19.372l21.508 67.085L616.788 83h16.254l-31.439 83.971z"></path>
        <path fill="#FFFFFF" d="M713.966 166.971l-53.063-61.715V167h-15.937V83h18.419l52.429 60.994V83h15.618v83.971h-17.466z"></path>
        <path fill="url(&quot;#svgcid-8ii0xj5s1phz&quot;)" d="M124.498 250c68.758 0 124.498-55.964 124.498-125S193.256 0 124.498 0C55.74 0 0 55.964 0 125s55.74 125 124.498 125z"></path>
        <path fill="url(&quot;#svgcid-lmwh7yws7aey&quot;)" d="M112.808 1.273a.982.982 0 0 1 .891-.84c41.206-3.423 83.248 13.502 110.222 48.66 42.096 54.859 31.562 133.32-23.526 175.235-27.598 21-61.136 28.846-93.048 24.528a.988.988 0 0 1-.803-.658c-3.983-11.556-6.406-24.787-4.849-38.688 4.817-43.004 35.02-55.092 47.853-97.502 12.756-42.112-41.837-74.31-36.74-110.735z"></path>
        <path fill="url(&quot;#svgcid-bnn5g4-6mrxfz&quot;)" d="M112.925.5c41.453-3.701 83.854 13.215 110.997 48.592 42.095 54.86 31.561 133.321-23.526 175.236-27.772 21.133-61.56 28.944-93.652 24.445 18.411-3.919 96.66-43.38 77.474-124.869C174.068 80.781 106.936 37.243 112.925.5z"></path>
        <path fill="url(&quot;#svgcid--t4h70y4ufvgs&quot;)" d="M150.057 3.054c28.51 5.839 55.116 21.515 74.187 46.286 42.032 54.607 31.515 132.705-23.49 174.426-27.73 21.035 55.626-39.502 12.781-111.131-14.739-24.64-31.078-34.143-49.355-64.904-14.097-23.72-20.487-45.977-14.123-44.677z"></path>
        <defs fill="none">
            <linearGradient gradientUnits="userSpaceOnUse" y2="199.748" x2="10.498" y1="0" x1="124.498" id="svgcid-8ii0xj5s1phz">
                <stop stop-color="#20175A"></stop>
                <stop stop-color="#3D347C" offset="1"></stop>
            </linearGradient>
            <linearGradient gradientUnits="userSpaceOnUse" y2="250" x2="175.467" y1="0" x1="175.467" id="svgcid-lmwh7yws7aey">
                <stop stop-color="#F54D59"></stop>
                <stop stop-color="#6C4562" offset="1"></stop>
            </linearGradient>
            <linearGradient gradientUnits="userSpaceOnUse" y2="250" x2="178.23" y1="0" x1="178.23" id="svgcid-bnn5g4-6mrxfz">
                <stop stop-color="#FF755B"></stop>
                <stop stop-color="#EE4B5D" offset="1"></stop>
            </linearGradient>
            <linearGradient gradientUnits="userSpaceOnUse" y2="228" x2="198.795" y1="3" x1="198.795" id="svgcid--t4h70y4ufvgs">
                <stop stop-color="#FE927E"></stop>
                <stop stop-color="#EE4B5D" offset="1"></stop>
            </linearGradient>
        <linearGradient gradientUnits="userSpaceOnUse" y2="199.748" x2="10.498" y1="0" x1="124.498" id="svgcid-8ii0xj5s1phz">
                <stop stop-color="#20175A"></stop>
                <stop stop-color="#3D347C" offset="1"></stop>
            </linearGradient><linearGradient gradientUnits="userSpaceOnUse" y2="250" x2="175.467" y1="0" x1="175.467" id="svgcid-lmwh7yws7aey">
                <stop stop-color="#F54D59"></stop>
                <stop stop-color="#6C4562" offset="1"></stop>
            </linearGradient><linearGradient gradientUnits="userSpaceOnUse" y2="250" x2="178.23" y1="0" x1="178.23" id="svgcid-bnn5g4-6mrxfz">
                <stop stop-color="#FF755B"></stop>
                <stop stop-color="#EE4B5D" offset="1"></stop>
            </linearGradient><linearGradient gradientUnits="userSpaceOnUse" y2="228" x2="198.795" y1="3" x1="198.795" id="svgcid--t4h70y4ufvgs">
                <stop stop-color="#FE927E"></stop>
                <stop stop-color="#EE4B5D" offset="1"></stop>
            </linearGradient></defs>
    </g>
</svg>