<svg xmlns:xlink="http://www.w3.org/1999/xlink" preserveAspectRatio="xMidYMid meet" data-bbox="0 0 829.628 179.181" xmlns="http://www.w3.org/2000/svg" viewBox="0 0 829.628 179.181" height="180" width="830" data-type="color" role="presentation" aria-hidden="true" aria-labelledby="svgcid--z06qi6-2bua1g"><title id="svgcid--z06qi6-2bua1g"></title>
<g>
<mask height="180" width="90" y="0" x="0" maskUnits="userSpaceOnUse" id="svgcid-s9db9y6k5qri" fill="none">
<path fill="#FFFFFF" d="M0 0h89.386v179.181H0V0z" clip-rule="evenodd" fill-rule="evenodd"></path>
</mask>
<g mask="url(#svgcid-s9db9y6k5qri)">
<path fill="#C42026" d="M6.74 89.59h26.477c3.716 0 6.727 3.018 6.727 6.742v40.021c0 1.789.709 3.505 1.97 4.766l35.988 36.073c4.238 4.247 11.484 1.241 11.484-4.765V6.755c0-6.006-7.246-9.014-11.484-4.767L1.985 78.08C-2.254 82.327.748 89.59 6.74 89.59z" clip-rule="evenodd" fill-rule="evenodd" data-color="1"></path>
</g>
<path fill="#FEFEFE" d="M196.593 61.984h-29.677V81.65h21.707v14.746h-21.707v35.645h-16.921V45.635h46.598v16.349z" clip-rule="evenodd" fill-rule="evenodd" data-color="2"></path>
<mask height="180" width="830" y="0" x="0" maskUnits="userSpaceOnUse" id="svgcid-1dqqhh-m2m9cw" fill="none">
<path fill="#FFFFFF" d="M0 179.181h829.63V0H0v179.181z" clip-rule="evenodd" fill-rule="evenodd"></path>
</mask>
<g mask="url(#svgcid-1dqqhh-m2m9cw)">
<path fill="#FEFEFE" d="M213.765 132.287h16.923V45.635h-16.923v86.652z" clip-rule="evenodd" fill-rule="evenodd" data-color="2"></path>
<path fill="#FEFEFE" d="M268.946 61.86v31.955h8.461c7.357 0 14.226-3.196 14.226-14.625v-2.459c0-11.921-6.622-14.871-14.226-14.871h-8.461zm-16.922 70.428V45.636h27.469c17.289 0 28.94 11.183 28.94 31.342v2.46c0 13.395-5.763 22.367-15.082 26.547l14.591 26.303h-18.515l-11.65-22.371h-8.831v22.371h-16.922z" clip-rule="evenodd" fill-rule="evenodd" data-color="2"></path>
<path fill="#FEFEFE" d="M323.151 69.48c0-15.854 11.281-25.442 28.449-25.442 16.678 0 28.204 11.184 28.204 29.007h-16.68c0-9.219-4.537-13.521-11.771-13.521-7.234 0-11.281 3.44-11.281 9.957 0 17.207 40.836 7.005 40.836 37.978 0 16.47-11.774 26.305-29.308 26.305-17.538 0-29.556-11.433-29.556-29.992h16.922c0 10.08 5.153 14.258 12.634 14.258 7.11 0 12.385-3.318 12.385-10.447 0-16.47-40.834-7.376-40.834-38.102z" clip-rule="evenodd" fill-rule="evenodd" data-color="2"></path>
<path fill="#FEFEFE" d="M444.922 61.984h-18.027v70.304h-16.923V61.984h-18.027v-16.35h52.977v16.35z" clip-rule="evenodd" fill-rule="evenodd" data-color="2"></path>
<path fill="#FEFEFE" d="M485.509 116.185c6.499 0 12.509-1.597 12.509-10.076v-1.353c0-7.375-6.01-9.342-11.894-9.342h-10.426v20.771h9.811zm.615-33.921c5.516 0 11.035-1.845 11.035-9.835v-1.353c0-7.497-6.132-9.217-12.506-9.217h-8.955v20.405h10.426zm-27.349-36.628h26.487c17.048 0 28.698 7.619 28.698 23.597v1.23c0 9.342-4.046 15.365-10.915 18.313 7.361 3.197 11.773 9.097 11.773 18.683v1.107c0 15.979-11.65 23.722-28.694 23.722h-27.349V45.635z" clip-rule="evenodd" fill-rule="evenodd" data-color="2"></path>
<path fill="#FEFEFE" d="M578.222 132.288h-45.619V45.635h16.921v70.429h28.698v16.224z" clip-rule="evenodd" fill-rule="evenodd" data-color="2"></path>
<path fill="#FEFEFE" d="M631.44 104.263V73.536c0-9.71-5.763-13.275-12.141-13.275-6.008 0-12.014 3.197-12.014 13.152v30.73c0 9.709 5.64 13.148 12.014 13.148 5.763 0 12.141-3.071 12.141-13.028zm-41.203-.615V74.151c0-17.7 11.894-30.114 29.062-30.114 17.048 0 29.066 12.414 29.066 30.114v29.497c0 17.577-12.018 29.871-29.066 29.871-17.168 0-29.062-12.294-29.062-29.871z" clip-rule="evenodd" fill-rule="evenodd" data-color="2"></path>
<path fill="#FEFEFE" d="M705.14 104.263V73.536c0-9.71-5.763-13.275-12.141-13.275-6.01 0-12.019 3.197-12.019 13.152v30.73c0 9.709 5.645 13.148 12.019 13.148 5.763 0 12.141-3.071 12.141-13.028zm-41.203-.615V74.151c0-17.7 11.894-30.114 29.062-30.114 17.046 0 29.066 12.414 29.066 30.114v29.497c0 17.577-12.02 29.871-29.066 29.871-17.168 0-29.062-12.294-29.062-29.871z" clip-rule="evenodd" fill-rule="evenodd" data-color="2"></path>
<path fill="#FEFEFE" d="M757.135 61.86v54.326h9.566c8.093 0 14.225-3.194 14.225-20.158V79.19c0-9.34-2.452-17.33-14.225-17.33h-9.566zm-16.921 70.428V45.636h28.449c17.17 0 29.066 10.569 29.066 31.71v22.861c0 20.895-11.896 32.081-29.066 32.081h-28.449z" clip-rule="evenodd" fill-rule="evenodd" data-color="2"></path>
<path fill="#FEFEFE" d="M817.825 51.705c1.252 0 2.063-.815 2.063-2.17 0-1.322-.811-2.068-2.063-2.068h-2.028v4.238h2.028zm-4.43-6.067h4.902c2.403 0 4.027 1.524 4.027 3.896 0 1.967-1.285 3.12-2.334 3.39v.069s.135.135.439.711l2.435 4.712h-2.638l-2.367-4.948h-2.062v4.947h-2.402V45.639zm4.126 16.507c5.445 0 9.639-4.407 9.639-10.068s-4.194-10.066-9.639-10.066c-5.376 0-9.538 4.404-9.538 10.066 0 5.662 4.162 10.068 9.538 10.068zm0-22.442c6.73 0 12.108 5.492 12.108 12.374 0 6.882-5.378 12.372-12.108 12.372-6.663 0-12.007-5.49-12.007-12.372 0-6.881 5.344-12.374 12.007-12.374z" clip-rule="evenodd" fill-rule="evenodd" data-color="2"></path>
</g>
</g>
</svg>