<svg xmlns:xlink="http://www.w3.org/1999/xlink" preserveAspectRatio="xMidYMid meet" data-bbox="0 0 109 40" xmlns="http://www.w3.org/2000/svg" viewBox="0 0 109 40" height="40" width="109" data-type="ugc" role="presentation" aria-hidden="true" aria-labelledby="svgcid-mhbj1h-dtb56p"><title id="svgcid-mhbj1h-dtb56p"></title>
    <g>
        <path fill="#BBE8FF" d="m12.957 40 6.364-40L5.358 9.1l7.6 30.9Z"></path>
        <path fill="url(&quot;#svgcid-zhe2rn-nrtbbo&quot;)" d="m12.989 40-.416-27.72-7.215-3.05L12.988 40Z"></path>
        <path fill="url(&quot;#svgcid-hfmkjmpekqdd&quot;)" d="M12.989 40 19.32 0l-5.196 12.52L12.99 40Z"></path>
        <path fill="#BBE8FF" d="m16.074 36.6 5.203-32.713 5.513 13.936-10.716 18.776Z"></path>
        <path fill="#BBE8FF" d="M8.28 29.96 4.158 13.28 0 18.914 8.28 29.96Z"></path>
        <path fill="url(&quot;#svgcid-yguhu9fus7lg&quot;)" d="M16.074 36.6 21.17 3.886l1.399 14.061L16.074 36.6Z"></path>
        <path fill="url(&quot;#svgcid--ddblszy2wlq1&quot;)" d="m16.074 36.761 7.097-18.127 3.62-.658L16.073 36.76Z"></path>
        <path fill="url(&quot;#svgcid--8nv5la5dui67&quot;)" d="M7.87 29.68 3.75 13l-.751 5.666 4.87 11.014Z"></path>
        <path fill="url(&quot;#svgcid-j69da7-jtr8wd&quot;)" d="m8.28 30.121-5.537-10.85-2.58-.324L8.28 30.121Z"></path>
        <path fill="#FFFFFF" d="M34.273 12.512V27.5h2.998V14.882h5.563V27.5h2.998V14.882h2.319c2.503 0 3.4.861 3.4 3.354V27.5h2.998v-9.264c.03-2.493-.34-3.662-1.484-4.647-1.205-.954-1.978-1.108-5.47-1.077H34.272Z"></path>
        <path fill="#FFFFFF" d="M63.392 18.36c-1.947 0-3.03.184-3.802.677-1.174.738-1.885 2.215-1.885 3.97 0 1.538.587 2.8 1.669 3.6 1.05.74 1.854.893 4.729.893h7.634v-9.48c.093-4.246-1.298-5.57-5.749-5.508h-7.727v2.37h7.078c2.936-.031 3.43.461 3.4 3.477h-5.347Zm5.347 2.37v4.4h-5.007c-2.133 0-2.937-.584-2.937-2.185 0-1.6.804-2.216 2.937-2.216h5.007Z"></path>
        <path fill="#FFFFFF" d="M75.776 12.512V27.5h2.998V14.882h3.492c2.658 0 3.555.985 3.555 4V27.5h2.998v-8.925c0-4.37-1.762-6.125-6.089-6.063h-6.954Z"></path>
        <path fill="#FFFFFF" d="M97.68 18.36c-1.947 0-3.028.184-3.801.677-1.175.738-1.886 2.215-1.886 3.97 0 1.538.588 2.8 1.67 3.6 1.05.74 1.854.893 4.728.893h7.635v-9.48c.093-4.246-1.298-5.57-5.749-5.508H92.55v2.37h7.078c2.936-.031 3.431.461 3.4 3.477h-5.347Zm5.348 2.37v4.4h-5.007c-2.133 0-2.937-.584-2.937-2.185 0-1.6.804-2.216 2.937-2.216h5.007Z"></path>
        <path fill="#FFFFFF" d="M106.032 10.968c0-.282.065-.543.194-.785a1.468 1.468 0 0 1 1.291-.778c.268 0 .517.07.747.21.23.137.41.327.539.568.131.242.197.503.197.785 0 .275-.063.532-.188.772-.126.24-.304.433-.536.58-.23.145-.483.217-.759.217a1.41 1.41 0 0 1-.759-.215 1.497 1.497 0 0 1-.536-.578 1.634 1.634 0 0 1-.19-.776Zm.24 0c0 .24.056.463.168.668.111.203.262.363.454.479.192.115.4.173.623.173.224 0 .433-.058.625-.175.193-.119.343-.28.452-.482.11-.202.165-.423.165-.663a1.35 1.35 0 0 0-.165-.66 1.218 1.218 0 0 0-.452-.476 1.18 1.18 0 0 0-.625-.176c-.223 0-.431.058-.623.174a1.232 1.232 0 0 0-.457.477 1.37 1.37 0 0 0-.165.661Zm.937.157v.707h-.295v-1.776h.578c.213 0 .378.046.496.138.118.09.177.223.177.397 0 .172-.089.303-.267.394.17.07.256.212.257.427v.127c0 .12.012.207.035.26v.033h-.303a.852.852 0 0 1-.029-.268 2.3 2.3 0 0 0-.006-.23c-.023-.134-.114-.204-.274-.21h-.369Zm0-.268h.327a.412.412 0 0 0 .242-.073.215.215 0 0 0 .092-.182c0-.102-.027-.174-.081-.216-.055-.043-.151-.065-.291-.065h-.289v.536Z"></path>
        <defs fill="none">
            <linearGradient gradientUnits="userSpaceOnUse" y2="12.745" x2="16.906" y1="11.564" x1="9.606" id="svgcid-zhe2rn-nrtbbo">
                <stop stop-color="#E64AFF"></stop>
                <stop stop-color="#2797FF" offset="1"></stop>
            </linearGradient>
            <linearGradient gradientUnits="userSpaceOnUse" y2="-2.172" x2="20.228" y1="-2.37" x1="12.989" id="svgcid-hfmkjmpekqdd">
                <stop stop-color="#2797FF"></stop>
                <stop stop-color="#02F7FC" offset="1"></stop>
            </linearGradient>
            <linearGradient gradientUnits="userSpaceOnUse" y2="2.203" x2="23.496" y1="1.948" x1="16.074" id="svgcid-yguhu9fus7lg">
                <stop stop-color="#E64AFF"></stop>
                <stop stop-color="#2797FF" offset=".474"></stop>
                <stop stop-color="#02F7FC" offset="1"></stop>
            </linearGradient>
            <linearGradient gradientUnits="userSpaceOnUse" y2="18.06" x2="28.216" y1="16.862" x1="16.074" id="svgcid--ddblszy2wlq1">
                <stop stop-color="#E64AFF"></stop>
                <stop stop-color="#2797FF" offset=".474"></stop>
                <stop stop-color="#02F7FC" offset="1"></stop>
            </linearGradient>
            <linearGradient gradientUnits="userSpaceOnUse" y2="15.144" x2="10.325" y1="14.265" x1="5.711" id="svgcid--8nv5la5dui67">
                <stop stop-color="#E64AFF"></stop>
                <stop stop-color="#2797FF" offset="1"></stop>
            </linearGradient>
            <linearGradient gradientUnits="userSpaceOnUse" y2="22.88" x2="11.189" y1="19.795" x1="4.682" id="svgcid-j69da7-jtr8wd">
                <stop stop-color="#E64AFF"></stop>
                <stop stop-color="#2797FF" offset="1"></stop>
            </linearGradient>
        <linearGradient gradientUnits="userSpaceOnUse" y2="12.745" x2="16.906" y1="11.564" x1="9.606" id="svgcid-zhe2rn-nrtbbo">
                <stop stop-color="#E64AFF"></stop>
                <stop stop-color="#2797FF" offset="1"></stop>
            </linearGradient><linearGradient gradientUnits="userSpaceOnUse" y2="-2.172" x2="20.228" y1="-2.37" x1="12.989" id="svgcid-hfmkjmpekqdd">
                <stop stop-color="#2797FF"></stop>
                <stop stop-color="#02F7FC" offset="1"></stop>
            </linearGradient><linearGradient gradientUnits="userSpaceOnUse" y2="2.203" x2="23.496" y1="1.948" x1="16.074" id="svgcid-yguhu9fus7lg">
                <stop stop-color="#E64AFF"></stop>
                <stop stop-color="#2797FF" offset=".474"></stop>
                <stop stop-color="#02F7FC" offset="1"></stop>
            </linearGradient><linearGradient gradientUnits="userSpaceOnUse" y2="18.06" x2="28.216" y1="16.862" x1="16.074" id="svgcid--ddblszy2wlq1">
                <stop stop-color="#E64AFF"></stop>
                <stop stop-color="#2797FF" offset=".474"></stop>
                <stop stop-color="#02F7FC" offset="1"></stop>
            </linearGradient><linearGradient gradientUnits="userSpaceOnUse" y2="15.144" x2="10.325" y1="14.265" x1="5.711" id="svgcid--8nv5la5dui67">
                <stop stop-color="#E64AFF"></stop>
                <stop stop-color="#2797FF" offset="1"></stop>
            </linearGradient><linearGradient gradientUnits="userSpaceOnUse" y2="22.88" x2="11.189" y1="19.795" x1="4.682" id="svgcid-j69da7-jtr8wd">
                <stop stop-color="#E64AFF"></stop>
                <stop stop-color="#2797FF" offset="1"></stop>
            </linearGradient></defs>
    </g>
</svg>