<svg xmlns:xlink="http://www.w3.org/1999/xlink" preserveAspectRatio="xMidYMid meet" data-bbox="3.095 4.092 495.905 155.889" xmlns="http://www.w3.org/2000/svg" viewBox="0 0 499 160" height="160" width="499" data-type="ugc" role="presentation" aria-hidden="true" aria-labelledby="svgcid-1y2vxu9y2aj2"><title id="svgcid-1y2vxu9y2aj2"></title>
    <g>
        <path fill="#FFFFFF" d="M487.44 54.23h-3.026v8.167h-2.035V54.23h-2.985v-1.636h8.046v1.636z"></path>
        <path fill="#FFFFFF" d="m491.266 52.594 2.537 7.11 2.524-7.11H499v9.803h-2.042v-2.68l.203-4.625-2.666 7.305h-1.397l-2.659-7.299.203 4.619v2.68h-2.035v-9.803h2.659z"></path>
        <path fill="url(&quot;#svgcid-lzvln4s703iy&quot;)" d="M3.114 91.07a.944.944 0 0 1 1.397-1.005l90.402 52.193a.944.944 0 0 1-.173 1.713l-47.497 15.875a.944.944 0 0 1-.77-.078L13.5 140.732a.946.946 0 0 1-.453-.631L3.114 91.07z"></path>
        <path fill="url(&quot;#svgcid--ldzjuih7xb8d&quot;)" d="M3.114 91.07a.944.944 0 0 1 1.397-1.005l42.33 69.916L13.5 140.732a.946.946 0 0 1-.453-.631L3.114 91.07z"></path>
        <path fill="url(&quot;#svgcid-lzi4tm-ob9jjy&quot;)" d="M101.421 133.46a.944.944 0 0 1-1.416.834L8.864 81.675a.944.944 0 0 1 .013-1.643l61.115-33.927 30.253 17.467 1.176 69.888z"></path>
        <path fill="url(&quot;#svgcid-q2jhzx-totacf&quot;)" d="M91.3 19.419a.944.944 0 0 1 1.353-.128l18.566 15.914c.309.265.413.7.258 1.076l-11.232 27.29-30.253-17.466L91.3 19.42z"></path>
        <path fill="url(&quot;#svgcid-y6wp95dotqxf&quot;)" d="M8.864 81.675a.944.944 0 0 1 .013-1.643l61.115-33.927 30.253 17.467L8.864 81.675z"></path>
        <path fill="#BBE8FF" d="m16.855 97.246 14.718 8.497-6.31 34.477a.464.464 0 0 1-.68.323l-3.273-1.805a.462.462 0 0 1-.237-.359l-4.218-41.133z"></path>
        <path fill="#BBE8FF" d="m19.688 87.797 15.535 8.97L77.958 52.88a.464.464 0 0 0-.1-.725l-4.63-2.674a.464.464 0 0 0-.504.026l-53.036 38.29z"></path>
        <path fill="#BBE8FF" d="M94.213 4.231a.464.464 0 0 1 .525-.097l33.486 15.428a.463.463 0 0 1 .254.541l-2.779 10.368a.464.464 0 0 1-.68.282L89.266 10.11a.464.464 0 0 1-.1-.726l5.047-5.154z"></path>
        <path fill="#BBE8FF" d="M48.084 159.667a.454.454 0 0 0 .13-.023l47.742-15.957a.463.463 0 0 0 .084-.841l-11.135-6.429-36.821 23.25z" clip-rule="evenodd" fill-rule="evenodd"></path>
        <path fill="#BBE8FF" d="M100.973 134.935a.464.464 0 0 0 .695-.41l-1.204-71.543-11.186 65.201 11.695 6.752zM69.87 45.319z" clip-rule="evenodd" fill-rule="evenodd"></path>
        <path fill="#FFFFFF" d="M157.634 62.526v76.767h11.599v-18.534h11.12c12.556 0 16.621-.957 21.285-5.142 5.38-5.022 8.728-14.229 8.728-24.034 0-9.566-2.391-16.98-6.935-22.002-5.141-5.62-9.566-7.055-21.762-7.055h-24.035zm11.599 9.207h11.12c12.914 0 18.056 5.5 18.056 19.132 0 7.773-1.554 13.871-4.424 16.86-2.511 2.511-6.935 3.827-13.632 3.827h-11.12V71.733z"></path>
        <path fill="#FFFFFF" d="M249.099 61.928c-10.403 0-17.697 2.75-22.839 8.49-4.782 5.261-7.533 13.392-7.533 22.24 0 18.415 10.642 28.699 29.774 28.699 18.654 0 29.654-10.882 29.654-29.416 0-19.251-10.402-30.013-29.056-30.013zm-.717 9.566c11.359 0 17.816 7.414 17.816 20.686 0 13.034-6.098 19.611-18.056 19.611-11.479 0-17.457-6.816-17.457-19.85 0-13.153 6.337-20.447 17.697-20.447z"></path>
        <path fill="#FFFFFF" d="M294.605 62.526h-11.12v9.207h11.12v31.568c0 13.512 4.185 17.697 17.339 17.458h11.12v-9.207h-6.816c-8.968 0-10.044-1.077-10.044-9.208v-30.61h16.86v-9.208h-16.86V41.003h-11.599v21.523z"></path>
        <path fill="#FFFFFF" d="M333.025 62.526v58.233h11.599V62.526h-11.599zm0-9.446h11.599V41.003h-11.599V53.08z"></path>
        <path fill="#FFFFFF" d="M387.473 61.928c-10.403 0-17.697 2.75-22.839 8.49-4.782 5.261-7.533 13.392-7.533 22.24 0 18.415 10.642 28.699 29.774 28.699 18.654 0 29.655-10.882 29.655-29.416 0-19.251-10.403-30.013-29.057-30.013zm-.717 9.566c11.359 0 17.816 7.414 17.816 20.686 0 13.034-6.098 19.611-18.056 19.611-11.479 0-17.457-6.816-17.457-19.85 0-13.153 6.337-20.447 17.697-20.447z"></path>
        <path fill="#FFFFFF" d="M429.011 62.526v58.233h11.599V71.733h13.511c10.284 0 13.751 3.827 13.751 15.545v33.481h11.599V86.082c0-16.98-6.816-23.795-23.556-23.556h-26.904z"></path>
        <defs fill="none">
            <linearGradient gradientUnits="userSpaceOnUse" y2="89.153" x2="109.531" y1="82.139" x1="2.832" id="svgcid-lzvln4s703iy">
                <stop stop-color="#E64AFF"></stop>
                <stop stop-color="#2797FF" offset=".605"></stop>
                <stop stop-color="#02F7FC" offset="1"></stop>
            </linearGradient>
            <linearGradient gradientUnits="userSpaceOnUse" y2="89.153" x2="109.531" y1="82.139" x1="2.832" id="svgcid--ldzjuih7xb8d">
                <stop stop-color="#E64AFF"></stop>
                <stop stop-color="#2797FF" offset=".605"></stop>
                <stop stop-color="#02F7FC" offset="1"></stop>
            </linearGradient>
            <linearGradient gradientUnits="userSpaceOnUse" y2="89.153" x2="109.531" y1="82.139" x1="2.832" id="svgcid-lzi4tm-ob9jjy">
                <stop stop-color="#E64AFF"></stop>
                <stop stop-color="#2797FF" offset=".605"></stop>
                <stop stop-color="#02F7FC" offset="1"></stop>
            </linearGradient>
            <linearGradient gradientUnits="userSpaceOnUse" y2="89.153" x2="109.531" y1="82.139" x1="2.832" id="svgcid-q2jhzx-totacf">
                <stop stop-color="#E64AFF"></stop>
                <stop stop-color="#2797FF" offset=".605"></stop>
                <stop stop-color="#02F7FC" offset="1"></stop>
            </linearGradient>
            <linearGradient gradientUnits="userSpaceOnUse" y2="89.153" x2="109.531" y1="82.139" x1="2.832" id="svgcid-y6wp95dotqxf">
                <stop stop-color="#E64AFF"></stop>
                <stop stop-color="#2797FF" offset=".605"></stop>
                <stop stop-color="#02F7FC" offset="1"></stop>
            </linearGradient>
        <linearGradient gradientUnits="userSpaceOnUse" y2="89.153" x2="109.531" y1="82.139" x1="2.832" id="svgcid-lzvln4s703iy">
                <stop stop-color="#E64AFF"></stop>
                <stop stop-color="#2797FF" offset=".605"></stop>
                <stop stop-color="#02F7FC" offset="1"></stop>
            </linearGradient><linearGradient gradientUnits="userSpaceOnUse" y2="89.153" x2="109.531" y1="82.139" x1="2.832" id="svgcid--ldzjuih7xb8d">
                <stop stop-color="#E64AFF"></stop>
                <stop stop-color="#2797FF" offset=".605"></stop>
                <stop stop-color="#02F7FC" offset="1"></stop>
            </linearGradient><linearGradient gradientUnits="userSpaceOnUse" y2="89.153" x2="109.531" y1="82.139" x1="2.832" id="svgcid-lzi4tm-ob9jjy">
                <stop stop-color="#E64AFF"></stop>
                <stop stop-color="#2797FF" offset=".605"></stop>
                <stop stop-color="#02F7FC" offset="1"></stop>
            </linearGradient><linearGradient gradientUnits="userSpaceOnUse" y2="89.153" x2="109.531" y1="82.139" x1="2.832" id="svgcid-q2jhzx-totacf">
                <stop stop-color="#E64AFF"></stop>
                <stop stop-color="#2797FF" offset=".605"></stop>
                <stop stop-color="#02F7FC" offset="1"></stop>
            </linearGradient><linearGradient gradientUnits="userSpaceOnUse" y2="89.153" x2="109.531" y1="82.139" x1="2.832" id="svgcid-y6wp95dotqxf">
                <stop stop-color="#E64AFF"></stop>
                <stop stop-color="#2797FF" offset=".605"></stop>
                <stop stop-color="#02F7FC" offset="1"></stop>
            </linearGradient></defs>
    </g>
</svg>