<svg xmlns:xlink="http://www.w3.org/1999/xlink" xmlns="http://www.w3.org/2000/svg" viewBox="0 0 960 154.18" width="960"  height="154.18" ><defs><style>.e{fill:#fd495c;}.f{fill:#f2f2f2;}</style></defs><g id="a"/><g id="b"><g id="c"><g id="d"><path class="e" d="M930.92,47.42h0c4.92-24.53-13.84-47.42-38.85-47.42H64.14C37.73,0,14.98,18.64,9.79,44.53L1.1,87.85c-6.88,34.31,19.36,66.33,54.35,66.33H921.98c13.21,0,24.58-9.32,27.18-22.27l10.29-51.33c3.44-17.15-9.68-33.17-27.18-33.17h-1.35Z"/><g><path class="f" d="M123.73,74.63c-5.17-3.83-13.17-6.53-24.01-8.13l-11.48-1.64c-2.89-.4-4.9-.89-6.03-1.49-1.15-.59-1.73-1.48-1.73-2.68,0-1.49,.9-2.65,2.69-3.5,1.79-.84,4.37-1.26,7.74-1.26,6.87,0,10.78,2.23,11.78,6.7l33.4-2.82c-1.88-8.45-6.35-14.64-13.41-18.57-2.56-1.42-5.54-2.59-8.92-3.5-5.91-1.58-13.08-2.38-21.49-2.38s-15.18,.8-21.3,2.38c-4.65,1.21-8.74,2.87-12.25,5-8.16,4.92-12.23,11.7-12.23,20.35,0,6.66,2.54,11.88,7.6,15.66,5.08,3.78,13.22,6.51,24.46,8.21l9.69,1.48c3.18,.5,5.37,1.07,6.56,1.71,1.2,.66,1.79,1.62,1.79,2.91,0,1.58-.85,2.78-2.54,3.58-1.69,.79-4.12,1.19-7.31,1.19-4.56,0-7.95-.52-10.13-1.56-2.19-1.04-3.53-2.76-4.03-5.15H38.6c.49,9.06,4.6,15.94,12.31,20.65,7.69,4.72,18.61,7.09,32.72,7.09,15.6,0,27.48-2.46,35.64-7.38,8.14-4.92,12.23-12.05,12.23-21.39,0-6.47-2.59-11.61-7.76-15.44Z"/><path class="f" d="M230.71,41.15c-1.68-1.39-3.57-2.54-5.72-3.43-3.81-1.6-8.39-2.38-13.74-2.38-4.79,0-9.6,.8-14.39,2.38-.97,.31-1.93,.66-2.9,1.04-5.77,2.29-10.44,5.27-14.02,8.94l1.95-9.99h-35.34l-15.95,78.73h36.23l8.65-42.5c.59-2.78,1.95-5.22,4.03-7.31,3.27-3.08,7.34-4.63,12.22-4.63,5.27,0,7.91,2.04,7.91,6.12,0,.89-.21,2.33-.61,4.32l-8.94,43.99h36.23l9.99-49.21c.89-4.47,1.34-7.71,1.34-9.69,0-7.06-2.31-12.52-6.93-16.4Z"/><path class="f" d="M325.31,41.83c-2.74-1.71-5.95-3.07-9.64-4.1-5.63-1.58-12.36-2.38-20.18-2.38-8.32,0-15.6,.79-21.84,2.38-3.89,.98-7.37,2.28-10.44,3.88-8,4.17-13.4,10.54-16.18,19.08l32.06,2.09c1.88-3.97,6.11-5.97,12.67-5.97,3.08,0,5.54,.53,7.38,1.57,1.84,1.04,2.76,2.46,2.76,4.24,0,.61-.14,1.65-.44,3.13l-.45,1.65-18.19,.44c-15.5,.4-27.24,3.02-35.19,7.83-7.95,4.82-11.92,11.65-11.92,20.5,0,7.06,2.46,12.6,7.38,16.62,4.91,4.03,11.7,6.04,20.35,6.04,5.97,0,11.3-.82,16.03-2.46,4.72-1.64,9.56-4.36,14.53-8.13l-1.64,8.21h32.65l9.69-47.71c.7-3.67,1.04-6.46,1.04-8.35,0-8.05-3.48-14.24-10.44-18.57Zm-28.03,44.21c-.7,3.29-2.54,5.91-5.53,7.9-3.67,2.49-8.3,3.74-13.86,3.74-5.86,0-8.79-1.79-8.79-5.37,0-2.28,1.31-3.99,3.94-5.14,2.64-1.15,6.74-1.82,12.31-2.01l12.23-.45-.3,1.34Z"/><path class="f" d="M395.08,90.51c-2.19,1.49-4.97,2.24-8.35,2.24-3.98,0-6.91-.93-8.8-2.76-1.88-1.84-2.83-4.7-2.83-8.58,0-6.16,1.55-11.03,4.63-14.61,3.08-3.57,7.2-5.36,12.38-5.36,2.98,0,5.22,.64,6.7,1.93,1.49,1.3,2.44,3.39,2.83,6.26l33.24-2.83c-.39-6.56-2.33-12.22-5.81-17-3.48-4.77-8.3-8.36-14.46-10.81-1.19-.46-2.41-.89-3.66-1.26-5.3-1.58-11.22-2.38-17.81-2.38-6.92,0-13.28,.8-19.1,2.38-3.53,.98-6.87,2.24-9.99,3.8-8.25,4.12-14.53,9.84-18.86,17.15-4.32,7.31-6.48,15.78-6.48,25.42,0,11.03,3.75,19.57,11.26,25.64,7.5,6.06,18.16,9.1,31.98,9.1s25.24-2.94,33.99-8.8c8.75-5.86,14.51-14.51,17.29-25.94h-33.69c-.8,2.78-2.28,4.92-4.47,6.4Z"/><polygon class="f" points="550.14 37.73 507.49 37.73 479.62 57.71 483.68 37.73 447.45 37.73 431.46 116.46 467.69 116.46 472.91 90.8 483.35 83.35 498.41 116.46 537.17 116.46 512.12 64.86 550.14 37.73"/><path class="f" d="M593.67,90.51c-2.18,1.49-4.96,2.24-8.34,2.24-3.98,0-6.92-.93-8.8-2.76-1.89-1.84-2.83-4.7-2.83-8.58,0-6.16,1.53-11.03,4.63-14.61,3.08-3.57,7.2-5.36,12.37-5.36,2.98,0,5.22,.64,6.71,1.93,1.48,1.3,2.44,3.39,2.83,6.26l33.24-2.83c-.4-6.56-2.33-12.22-5.81-17-3.48-4.77-8.31-8.36-14.47-10.81-1.19-.46-2.4-.89-3.66-1.26-5.28-1.58-11.22-2.38-17.81-2.38-6.92,0-13.27,.8-19.08,2.38-3.53,.98-6.87,2.24-9.99,3.8-8.26,4.12-14.53,9.84-18.86,17.15-4.33,7.31-6.48,15.78-6.48,25.42,0,11.03,3.75,19.57,11.25,25.64,7.51,6.06,18.17,9.1,31.98,9.1s25.25-2.94,33.99-8.8c8.75-5.86,14.52-14.51,17.3-25.94h-33.69c-.8,2.78-2.29,4.92-4.48,6.4Z"/><path class="f" d="M647.84,28.89l-1.79,8.84-15.99,78.73h36.23l15.98-78.73,1.79-8.84h-36.22Z"/><path class="f" d="M750.37,37.73l-8.65,42.5c-.7,3.48-2.46,6.31-5.28,8.49-2.83,2.19-6.29,3.29-10.37,3.29-4.97,0-7.45-2.09-7.45-6.26,0-.99,.19-2.38,.59-4.17l8.8-43.84h-36.23l-10.14,49.94c-.7,3.49-1.04,6.47-1.04,8.96,0,7.05,2.24,12.52,6.71,16.39,4.47,3.88,10.84,5.82,19.08,5.82,5.67,0,11.3-1.15,16.92-3.43,5.62-2.29,10.27-5.27,13.94-8.96l-1.93,10h35.33l15.95-78.73h-36.23Z"/><path class="f" d="M885.75,51.08c-2.59-5.12-6.18-9.02-10.81-11.71-1.07-.62-2.16-1.16-3.3-1.64-3.8-1.58-7.99-2.38-12.58-2.38-4.91,0-9.54,.79-13.88,2.38-5.1,1.84-9.82,4.78-14.16,8.8l1.79-8.8,1.82-8.84h-36.22l-1.79,8.84-15.99,78.73h35.34l2.07-10.44c2.19,4.07,5.59,7.23,10.22,9.46,4.63,2.24,9.87,3.36,15.73,3.36,8.75,0,16.6-2.35,23.55-7.01,6.96-4.68,12.37-10.81,16.25-18.41,3.88-7.6,5.82-15.78,5.82-24.53,0-6.75-1.3-12.69-3.88-17.81Zm-37.12,35.92c-3.09,3.74-7.31,5.59-12.68,5.59-4.17,0-7.31-1.29-9.39-3.88-1.58-1.88-2.38-4.21-2.38-7,0-2,.24-3.98,.75-5.97l.44-1.79c.9-3.38,2.78-6.26,5.67-8.65,2.99-2.49,6.61-3.74,10.89-3.74,3.67,0,6.48,.93,8.43,2.76,1.93,1.84,2.9,4.55,2.9,8.13,0,5.97-1.53,10.81-4.61,14.53Z"/><path class="f" d="M890.81,82.76l-6.85,33.69h33.99l6.85-33.69h-33.99Z"/></g></g></g></g></svg>