<svg xmlns:xlink="http://www.w3.org/1999/xlink" xmlns="http://www.w3.org/2000/svg" width="107" height="33" viewBox="0 0 107 33" fill="none">
<path d="M3.99008 21.2367C3.99008 21.7177 4.24007 22.115 4.74006 22.4287C5.24006 22.7214 5.96921 23.0037 6.92753 23.2756C7.65669 23.4429 8.29209 23.6206 8.83375 23.8088C9.37541 23.9971 9.94832 24.2794 10.5525 24.6558C11.1566 25.0113 11.615 25.4923 11.9275 26.0987C12.2608 26.6842 12.417 27.3743 12.3962 28.169C12.3962 29.6746 11.8129 30.8561 10.6462 31.7135C9.47957 32.5709 8.03168 32.9996 6.30254 32.9996C4.7609 32.9996 3.438 32.6755 2.33385 32.0272C1.29847 31.4193 0.528706 30.5908 0.0245697 29.5415C-0.032973 29.4218 0.0141072 29.2792 0.128748 29.2124L2.5596 27.7956C2.70171 27.7127 2.88341 27.781 2.94881 27.9322C3.51473 29.2402 4.63264 29.8942 6.30254 29.8942C8.07335 29.8942 8.95875 29.3087 8.95875 28.1376C8.95875 27.2802 7.96918 26.611 5.99004 26.1301C5.24006 25.9419 4.60465 25.7537 4.08382 25.5654C3.58383 25.3772 3.02134 25.1054 2.39635 24.7499C1.79219 24.3944 1.32345 23.9239 0.990123 23.3383C0.677628 22.7528 0.531797 22.0732 0.55263 21.2994C0.55263 19.8565 1.09429 18.6959 2.1776 17.8176C3.28175 16.9393 4.64632 16.5002 6.27129 16.5002C7.56294 16.5002 8.70875 16.7929 9.70874 17.3785C10.6541 17.9014 11.394 18.6215 11.9284 19.539C12 19.6618 11.9537 19.8179 11.8301 19.8875L9.46023 21.2207C9.32554 21.2965 9.15579 21.2384 9.08273 21.102C8.53722 20.0835 7.60007 19.5742 6.27129 19.5742C5.60463 19.5742 5.05256 19.7206 4.61507 20.0134C4.19841 20.3061 3.99008 20.7139 3.99008 21.2367Z" fill="#FAFAFA"/>
<path d="M28.1127 30.6157C26.5294 32.205 24.5815 32.9996 22.2691 32.9996C19.9566 32.9996 18.0087 32.205 16.4254 30.6157C14.8213 29.0054 14.0192 27.0502 14.0192 24.7499C14.0192 22.4496 14.8213 20.4943 16.4254 18.8841C18.0087 17.2948 19.9566 16.5002 22.2691 16.5002C24.5815 16.5002 26.5294 17.2948 28.1127 18.8841C29.7169 20.4943 30.519 22.4496 30.519 24.7499C30.519 27.0502 29.7169 29.0054 28.1127 30.6157ZM17.3942 24.7499C17.3942 26.1719 17.8629 27.3534 18.8004 28.2944C19.7379 29.2355 20.8941 29.706 22.2691 29.706C23.6441 29.706 24.8003 29.2355 25.7378 28.2944C26.6753 27.3534 27.144 26.1719 27.144 24.7499C27.144 23.3279 26.6753 22.1464 25.7378 21.2053C24.8003 20.2643 23.6441 19.7938 22.2691 19.7938C20.8941 19.7938 19.7379 20.2643 18.8004 21.2053C17.8629 22.1464 17.3942 23.3279 17.3942 24.7499Z" fill="#FAFAFA"/>
<path d="M36.2581 32.33C36.2581 32.4746 36.1411 32.5918 35.9969 32.5918H33.1444C33.0001 32.5918 32.8832 32.4746 32.8832 32.33V9.95523C32.8832 9.8106 33.0001 9.69336 33.1444 9.69336H35.9969C36.1411 9.69336 36.2581 9.8106 36.2581 9.95523V32.33Z" fill="#FAFAFA"/>
<path d="M51.6811 18.8151C51.7612 18.9135 51.9266 18.8584 51.9266 18.7315V17.1698C51.9266 17.0252 52.0435 16.9079 52.1878 16.9079H55.0403C55.1846 16.9079 55.3015 17.0252 55.3015 17.1698V32.33C55.3015 32.4746 55.1846 32.5918 55.0403 32.5918H52.1878C52.0435 32.5918 51.9266 32.4746 51.9266 32.33V30.7408C51.9266 30.6136 51.7603 30.5587 51.6806 30.6577C50.4246 32.219 48.6837 32.9996 46.4579 32.9996C44.3121 32.9996 42.4788 32.205 40.958 30.6157C39.4372 29.0264 38.6768 27.0711 38.6768 24.7499C38.6768 22.4287 39.4372 20.4734 40.958 18.8841C42.4788 17.2948 44.3121 16.5002 46.4579 16.5002C48.684 16.5002 50.4251 17.2718 51.6811 18.8151ZM43.458 28.3572C44.3954 29.2982 45.5725 29.7687 46.9892 29.7687C48.4058 29.7687 49.5829 29.2982 50.5203 28.3572C51.4578 27.3952 51.9266 26.1928 51.9266 24.7499C51.9266 23.307 51.4578 22.115 50.5203 21.174C49.5829 20.212 48.4058 19.731 46.9892 19.731C45.5725 19.731 44.3954 20.212 43.458 21.174C42.5205 22.115 42.0517 23.307 42.0517 24.7499C42.0517 26.1719 42.5205 27.3743 43.458 28.3572Z" fill="#FAFAFA"/>
<path d="M65.9852 32.9996C63.6311 32.9996 61.6623 32.205 60.079 30.6157C58.5166 29.0054 57.7353 27.0502 57.7353 24.7499C57.7353 22.4078 58.5166 20.4525 60.079 18.8841C61.6623 17.2948 63.6311 16.5002 65.9852 16.5002C67.506 16.5002 68.8914 16.8661 70.1414 17.598C71.3166 18.2862 72.2156 19.1962 72.8384 20.328C72.9053 20.4495 72.8602 20.6012 72.7405 20.671L70.2938 22.097C70.1614 22.1741 69.9922 22.1206 69.9176 21.9866C69.566 21.3547 69.0677 20.8538 68.4227 20.4839C67.7143 20.0447 66.8914 19.8251 65.9539 19.8251C64.579 19.8251 63.4227 20.2957 62.4852 21.2367C61.5686 22.1986 61.1103 23.3697 61.1103 24.7499C61.1103 26.1301 61.5686 27.3011 62.4852 28.2631C63.4227 29.2041 64.579 29.6746 65.9539 29.6746C66.8706 29.6746 67.6935 29.4655 68.4227 29.0473C69.0898 28.6566 69.6086 28.1418 69.979 27.503C70.0544 27.373 70.2197 27.322 70.35 27.3965L72.796 28.7957C72.9187 28.8659 72.9639 29.0215 72.8934 29.1443C72.2326 30.2945 71.3049 31.2136 70.1101 31.9017C68.8602 32.6336 67.4852 32.9996 65.9852 32.9996Z" fill="#FAFAFA"/>
<path d="M90.4543 25.9719C90.4363 26.0993 90.3266 26.1928 90.1983 26.1928H78.3069C78.1406 26.1928 78.0162 26.3467 78.0602 26.5074C78.3392 27.528 78.8763 28.3328 79.6713 28.9218C80.5671 29.5701 81.6712 29.8942 82.9837 29.8942C84.6645 29.8942 85.9606 29.3101 86.8718 28.142C86.9553 28.0351 87.1046 28.002 87.2216 28.0706L89.5566 29.4401C89.6865 29.5162 89.7258 29.6867 89.6382 29.8093C88.1191 31.9362 85.8906 32.9996 82.9525 32.9996C80.4317 32.9996 78.3796 32.2259 76.7963 30.6784C75.2338 29.11 74.4526 27.1338 74.4526 24.7499C74.4526 22.4287 75.2234 20.4734 76.7651 18.8841C78.2859 17.2948 80.265 16.5002 82.7025 16.5002C84.9733 16.5002 86.8482 17.3053 88.3274 18.9155C89.8065 20.5257 90.5461 22.4809 90.5461 24.7813C90.5461 25.1397 90.5155 25.5366 90.4543 25.9719ZM78.0203 23.1226C77.981 23.2823 78.1048 23.4324 78.269 23.4324H86.8255C86.989 23.4324 87.1126 23.2834 87.0751 23.124C86.8201 22.0389 86.3208 21.1903 85.5774 20.578C84.7858 19.9088 83.817 19.5742 82.6712 19.5742C81.4212 19.5742 80.3796 19.9192 79.5463 20.6093C78.7865 21.2385 78.2779 22.0763 78.0203 23.1226Z" fill="#FAFAFA"/>
<path fill-rule="evenodd" clip-rule="evenodd" d="M93.8304 8.25C93.8304 10.9838 96.0414 13.2 98.7689 13.2C101.496 13.2 103.707 10.9838 103.707 8.25C103.707 5.51619 101.496 3.3 98.7689 3.3C96.0414 3.3 93.8304 5.51619 93.8304 8.25ZM98.7689 0C94.2231 0 90.5381 3.69365 90.5381 8.25C90.5381 12.8064 94.2231 16.5 98.7689 16.5C103.315 16.5 107 12.8064 107 8.25C107 3.69365 103.315 0 98.7689 0Z" fill="#FAFAFA"/>
</svg>