<svg width="140" height="30" viewBox="0 0 140 30" fill="none" xmlns="http://www.w3.org/2000/svg">
<path d="M43.1796 19.4388C43.9971 19.4388 44.5932 19.3434 44.9679 19.1528C45.3426 18.9448 45.5299 18.5981 45.5299 18.1128C45.5299 17.6621 45.3256 17.2894 44.9168 16.9948C44.5251 16.7001 43.8694 16.3794 42.9497 16.0328C42.3877 15.8248 41.8682 15.6081 41.3914 15.3828C40.9315 15.1401 40.5313 14.8628 40.1907 14.5508C39.8501 14.2388 39.5776 13.8661 39.3732 13.4328C39.1858 12.9821 39.0922 12.4361 39.0922 11.7948C39.0922 10.5468 39.5435 9.56742 40.4461 8.85675C41.3488 8.12875 42.575 7.76475 44.1249 7.76475C44.9083 7.76475 45.6577 7.84275 46.373 7.99875C47.0883 8.13742 47.6248 8.27608 47.9824 8.41475L47.4204 10.9628C47.0798 10.8068 46.6455 10.6681 46.1175 10.5468C45.5895 10.4081 44.9764 10.3388 44.2781 10.3388C43.648 10.3388 43.1371 10.4514 42.7453 10.6768C42.3536 10.8848 42.1578 11.2141 42.1578 11.6648C42.1578 11.8901 42.1918 12.0894 42.26 12.2628C42.3451 12.4361 42.4814 12.6008 42.6687 12.7568C42.856 12.8954 43.103 13.0428 43.4096 13.1988C43.7161 13.3374 44.0908 13.4848 44.5336 13.6408C45.2659 13.9181 45.8876 14.1954 46.3985 14.4728C46.9094 14.7328 47.3267 15.0361 47.6503 15.3828C47.9909 15.7121 48.2379 16.0934 48.3912 16.5268C48.5444 16.9601 48.6211 17.4801 48.6211 18.0868C48.6211 19.3868 48.1442 20.3748 47.1905 21.0508C46.2538 21.7094 44.9083 22.0388 43.1541 22.0388C41.9789 22.0388 41.0337 21.9348 40.3184 21.7268C39.6031 21.5361 39.1007 21.3801 38.8112 21.2588L39.3476 18.6328C39.8075 18.8234 40.3525 19.0054 40.9826 19.1788C41.6298 19.3521 42.3621 19.4388 43.1796 19.4388Z" fill="url(#paint0_linear_441_3493)"/>
<path d="M61.8295 21.2848C61.2334 21.4408 60.4585 21.5968 59.5048 21.7528C58.551 21.9261 57.5036 22.0128 56.3625 22.0128C55.2896 22.0128 54.3869 21.8568 53.6546 21.5448C52.9393 21.2328 52.3602 20.7994 51.9174 20.2448C51.4916 19.6901 51.1851 19.0314 50.9977 18.2688C50.8104 17.4888 50.7167 16.6394 50.7167 15.7208V8.10275H53.8078V15.2268C53.8078 16.6828 54.0122 17.7228 54.421 18.3468C54.8467 18.9708 55.5791 19.2828 56.618 19.2828C56.9927 19.2828 57.3844 19.2654 57.7931 19.2308C58.2189 19.1961 58.534 19.1528 58.7384 19.1008V8.10275H61.8295V21.2848Z" fill="url(#paint1_linear_441_3493)"/>
<path d="M73.9899 14.8628C73.9899 13.5281 73.7259 12.4708 73.198 11.6908C72.687 10.9108 71.8695 10.5208 70.7455 10.5208C70.2345 10.5208 69.7492 10.5988 69.2893 10.7548C68.8465 10.9108 68.4889 11.0841 68.2164 11.2748V19.1008C68.4378 19.1528 68.7188 19.2048 69.0594 19.2568C69.4171 19.2914 69.8428 19.3088 70.3367 19.3088C71.4778 19.3088 72.372 18.9188 73.0191 18.1388C73.6663 17.3414 73.9899 16.2494 73.9899 14.8628ZM77.1577 14.9148C77.1577 16.0068 76.9959 16.9948 76.6723 17.8788C76.3657 18.7454 75.9144 19.4908 75.3183 20.1148C74.7393 20.7388 74.0325 21.2154 73.198 21.5448C72.3634 21.8741 71.4182 22.0388 70.3623 22.0388C69.3404 22.0388 68.3611 21.9608 67.4244 21.8048C66.5047 21.6488 65.7383 21.4754 65.1252 21.2848V2.04475L68.2164 1.52475V8.57075C68.574 8.38008 69.0083 8.20675 69.5192 8.05075C70.0472 7.89475 70.6263 7.81675 71.2564 7.81675C72.1931 7.81675 73.0276 7.99008 73.76 8.33675C74.5094 8.66608 75.131 9.14275 75.6249 9.76675C76.1188 10.3908 76.4935 11.1448 76.7489 12.0288C77.0214 12.8954 77.1577 13.8574 77.1577 14.9148Z" fill="url(#paint2_linear_441_3493)"/>
<path d="M83.0514 19.4388C83.8689 19.4388 84.465 19.3434 84.8397 19.1528C85.2143 18.9448 85.4017 18.5981 85.4017 18.1128C85.4017 17.6621 85.1973 17.2894 84.7886 16.9948C84.3968 16.7001 83.7411 16.3794 82.8215 16.0328C82.2594 15.8248 81.74 15.6081 81.2631 15.3828C80.8033 15.1401 80.403 14.8628 80.0624 14.5508C79.7218 14.2388 79.4493 13.8661 79.2449 13.4328C79.0576 12.9821 78.9639 12.4361 78.9639 11.7948C78.9639 10.5468 79.4152 9.56742 80.3179 8.85675C81.2205 8.12875 82.4468 7.76475 83.9966 7.76475C84.78 7.76475 85.5294 7.84275 86.2447 7.99875C86.96 8.13742 87.4965 8.27608 87.8542 8.41475L87.2921 10.9628C86.9515 10.8068 86.5172 10.6681 85.9893 10.5468C85.4613 10.4081 84.8482 10.3388 84.1499 10.3388C83.5197 10.3388 83.0088 10.4514 82.6171 10.6768C82.2254 10.8848 82.0295 11.2141 82.0295 11.6648C82.0295 11.8901 82.0636 12.0894 82.1317 12.2628C82.2169 12.4361 82.3531 12.6008 82.5405 12.7568C82.7278 12.8954 82.9747 13.0428 83.2813 13.1988C83.5879 13.3374 83.9626 13.4848 84.4054 13.6408C85.1377 13.9181 85.7593 14.1954 86.2703 14.4728C86.7812 14.7328 87.1985 15.0361 87.5221 15.3828C87.8627 15.7121 88.1096 16.0934 88.2629 16.5268C88.4162 16.9601 88.4928 17.4801 88.4928 18.0868C88.4928 19.3868 88.016 20.3748 87.0622 21.0508C86.1255 21.7094 84.78 22.0388 83.0258 22.0388C81.8507 22.0388 80.9055 21.9348 80.1902 21.7268C79.4749 21.5361 78.9724 21.3801 78.6829 21.2588L79.2194 18.6328C79.6792 18.8234 80.2242 19.0054 80.8544 19.1788C81.5016 19.3521 82.2339 19.4388 83.0514 19.4388Z" fill="url(#paint3_linear_441_3493)"/>
<path d="M102.825 14.8888C102.825 15.9634 102.672 16.9428 102.365 17.8268C102.059 18.7108 101.625 19.4648 101.063 20.0888C100.501 20.7128 99.8193 21.1981 99.0188 21.5448C98.2354 21.8914 97.3668 22.0648 96.4131 22.0648C95.4593 22.0648 94.5908 21.8914 93.8073 21.5448C93.0239 21.1981 92.3512 20.7128 91.7891 20.0888C91.2271 19.4648 90.7843 18.7108 90.4607 17.8268C90.1542 16.9428 90.0009 15.9634 90.0009 14.8888C90.0009 13.8141 90.1542 12.8434 90.4607 11.9768C90.7843 11.0928 91.2271 10.3388 91.7891 9.71475C92.3682 9.09075 93.0494 8.61408 93.8329 8.28475C94.6163 7.93808 95.4764 7.76475 96.4131 7.76475C97.3498 7.76475 98.2099 7.93808 98.9933 8.28475C99.7938 8.61408 100.475 9.09075 101.037 9.71475C101.599 10.3388 102.033 11.0928 102.34 11.9768C102.664 12.8434 102.825 13.8141 102.825 14.8888ZM99.6575 14.8888C99.6575 13.5368 99.368 12.4708 98.7889 11.6908C98.2269 10.8934 97.435 10.4948 96.4131 10.4948C95.3912 10.4948 94.5908 10.8934 94.0117 11.6908C93.4497 12.4708 93.1687 13.5368 93.1687 14.8888C93.1687 16.2581 93.4497 17.3414 94.0117 18.1388C94.5908 18.9361 95.3912 19.3348 96.4131 19.3348C97.435 19.3348 98.2269 18.9361 98.7889 18.1388C99.368 17.3414 99.6575 16.2581 99.6575 14.8888Z" fill="url(#paint4_linear_441_3493)"/>
<path d="M104.63 14.9148C104.63 13.9094 104.784 12.9734 105.09 12.1068C105.397 11.2228 105.831 10.4601 106.393 9.81875C106.972 9.17742 107.67 8.67475 108.488 8.31075C109.305 7.94675 110.225 7.76475 111.247 7.76475C112.507 7.76475 113.699 7.99875 114.823 8.46675L114.159 11.0408C113.802 10.8848 113.393 10.7548 112.933 10.6508C112.49 10.5468 112.013 10.4948 111.502 10.4948C110.293 10.4948 109.373 10.8848 108.743 11.6648C108.113 12.4274 107.798 13.5108 107.798 14.9148C107.798 16.2668 108.096 17.3414 108.692 18.1388C109.288 18.9188 110.293 19.3088 111.707 19.3088C112.235 19.3088 112.754 19.2568 113.265 19.1528C113.776 19.0488 114.219 18.9188 114.594 18.7628L115.028 21.3628C114.687 21.5361 114.168 21.6921 113.469 21.8308C112.788 21.9694 112.081 22.0388 111.349 22.0388C110.208 22.0388 109.212 21.8654 108.36 21.5188C107.526 21.1548 106.827 20.6608 106.265 20.0368C105.72 19.3954 105.312 18.6414 105.039 17.7748C104.767 16.8908 104.63 15.9374 104.63 14.9148Z" fill="url(#paint5_linear_441_3493)"/>
<path d="M119.899 21.7008H116.808V8.10275H119.899V21.7008ZM120.231 4.12475C120.231 4.71408 120.044 5.18208 119.669 5.52875C119.294 5.87542 118.852 6.04875 118.341 6.04875C117.813 6.04875 117.361 5.87542 116.987 5.52875C116.612 5.18208 116.425 4.71408 116.425 4.12475C116.425 3.51808 116.612 3.04142 116.987 2.69475C117.361 2.34808 117.813 2.17475 118.341 2.17475C118.852 2.17475 119.294 2.34808 119.669 2.69475C120.044 3.04142 120.231 3.51808 120.231 4.12475Z" fill="url(#paint6_linear_441_3493)"/>
<path d="M127.905 19.4908C128.858 19.4908 129.582 19.4388 130.076 19.3348V15.8508C129.906 15.7988 129.659 15.7468 129.335 15.6948C129.012 15.6428 128.654 15.6168 128.262 15.6168C127.922 15.6168 127.572 15.6428 127.215 15.6948C126.874 15.7468 126.559 15.8421 126.27 15.9808C125.997 16.1194 125.776 16.3188 125.605 16.5788C125.435 16.8214 125.35 17.1334 125.35 17.5148C125.35 18.2601 125.58 18.7801 126.04 19.0748C126.499 19.3521 127.121 19.4908 127.905 19.4908ZM127.649 7.76475C128.671 7.76475 129.531 7.89475 130.229 8.15475C130.928 8.41475 131.481 8.77875 131.89 9.24675C132.316 9.71475 132.614 10.2868 132.784 10.9628C132.971 11.6214 133.065 12.3494 133.065 13.1468V21.3888C132.588 21.4928 131.864 21.6141 130.894 21.7528C129.94 21.9088 128.858 21.9868 127.649 21.9868C126.849 21.9868 126.116 21.9088 125.452 21.7528C124.788 21.5968 124.217 21.3454 123.74 20.9988C123.281 20.6521 122.914 20.2014 122.642 19.6468C122.386 19.0921 122.259 18.4074 122.259 17.5928C122.259 16.8128 122.403 16.1541 122.693 15.6168C123 15.0794 123.408 14.6461 123.919 14.3168C124.43 13.9701 125.018 13.7274 125.682 13.5888C126.363 13.4328 127.07 13.3548 127.802 13.3548C128.143 13.3548 128.501 13.3808 128.875 13.4328C129.25 13.4674 129.65 13.5368 130.076 13.6408V13.1208C130.076 12.7568 130.033 12.4101 129.948 12.0808C129.863 11.7514 129.71 11.4654 129.488 11.2228C129.284 10.9628 129.003 10.7634 128.645 10.6248C128.305 10.4861 127.87 10.4168 127.343 10.4168C126.627 10.4168 125.972 10.4688 125.375 10.5728C124.779 10.6768 124.294 10.7981 123.919 10.9368L123.536 8.38875C123.928 8.25008 124.498 8.11142 125.248 7.97275C125.997 7.83408 126.798 7.76475 127.649 7.76475Z" fill="url(#paint7_linear_441_3493)"/>
<path d="M136.161 21.7008V2.04475L139.252 1.52475V21.7008H136.161Z" fill="url(#paint8_linear_441_3493)"/>
<path fill-rule="evenodd" clip-rule="evenodd" d="M29.4769 15C29.4769 23.2843 22.8783 30 14.7385 30C6.59863 30 0 23.2843 0 15C0 6.71573 6.59863 0 14.7385 0C22.8783 0 29.4769 6.71573 29.4769 15ZM14.6895 3.19845C11.6777 3.19845 9.23624 5.68327 9.23624 8.74845V12.3484C9.23624 15.4136 11.6777 17.8985 14.6895 17.8985C15.1122 17.8985 15.5237 17.8495 15.9188 17.7569C16.1579 17.7008 16.2254 17.406 16.0493 17.2348L16.017 17.2034L12.8755 14.1496C12.3884 13.668 12.0857 12.9942 12.0857 12.2485V8.84845C12.0857 7.38489 13.2514 6.19845 14.6895 6.19845C16.1275 6.19845 17.2933 7.38489 17.2933 8.84845V8.97486C17.2933 9.76171 17.9311 10.3996 18.718 10.3996C19.5048 10.3996 20.1427 9.76171 20.1427 8.97486V8.74845C20.1427 5.68327 17.7012 3.19845 14.6895 3.19845ZM20.1422 20.9491C20.1422 24.0142 17.7007 26.4991 14.689 26.4991C11.6772 26.4991 9.23572 24.0142 9.23572 20.9491V20.7238C9.23572 19.9369 9.87359 19.2991 10.6604 19.2991C11.4473 19.2991 12.0852 19.9369 12.0852 20.7238V20.8491C12.0852 22.3126 13.2509 23.4991 14.689 23.4991C16.127 23.4991 17.2927 22.3126 17.2927 20.8491V17.4491C17.2927 16.7033 16.9901 16.0295 16.5029 15.5479L13.3614 12.4941L13.3291 12.4628C13.153 12.2915 13.2205 11.9967 13.4596 11.9407C13.8547 11.848 14.2662 11.7991 14.689 11.7991C17.7007 11.7991 20.1422 14.2839 20.1422 17.3491V20.9491Z" fill="url(#paint9_linear_441_3493)"/>
<defs>
<linearGradient id="paint0_linear_441_3493" x1="89.8474" y1="-2.89925" x2="89.8474" y2="27.0008" gradientUnits="userSpaceOnUse">
<stop offset="0.109978" stop-color="#F40183"/>
<stop offset="1" stop-color="#7D0495"/>
</linearGradient>
<linearGradient id="paint1_linear_441_3493" x1="89.8474" y1="-2.89925" x2="89.8474" y2="27.0008" gradientUnits="userSpaceOnUse">
<stop offset="0.109978" stop-color="#F40183"/>
<stop offset="1" stop-color="#7D0495"/>
</linearGradient>
<linearGradient id="paint2_linear_441_3493" x1="89.8474" y1="-2.89925" x2="89.8474" y2="27.0008" gradientUnits="userSpaceOnUse">
<stop offset="0.109978" stop-color="#F40183"/>
<stop offset="1" stop-color="#7D0495"/>
</linearGradient>
<linearGradient id="paint3_linear_441_3493" x1="89.8474" y1="-2.89925" x2="89.8474" y2="27.0008" gradientUnits="userSpaceOnUse">
<stop offset="0.109978" stop-color="#F40183"/>
<stop offset="1" stop-color="#7D0495"/>
</linearGradient>
<linearGradient id="paint4_linear_441_3493" x1="89.8474" y1="-2.89925" x2="89.8474" y2="27.0008" gradientUnits="userSpaceOnUse">
<stop offset="0.109978" stop-color="#F40183"/>
<stop offset="1" stop-color="#7D0495"/>
</linearGradient>
<linearGradient id="paint5_linear_441_3493" x1="89.8474" y1="-2.89925" x2="89.8474" y2="27.0008" gradientUnits="userSpaceOnUse">
<stop offset="0.109978" stop-color="#F40183"/>
<stop offset="1" stop-color="#7D0495"/>
</linearGradient>
<linearGradient id="paint6_linear_441_3493" x1="89.8474" y1="-2.89925" x2="89.8474" y2="27.0008" gradientUnits="userSpaceOnUse">
<stop offset="0.109978" stop-color="#F40183"/>
<stop offset="1" stop-color="#7D0495"/>
</linearGradient>
<linearGradient id="paint7_linear_441_3493" x1="89.8474" y1="-2.89925" x2="89.8474" y2="27.0008" gradientUnits="userSpaceOnUse">
<stop offset="0.109978" stop-color="#F40183"/>
<stop offset="1" stop-color="#7D0495"/>
</linearGradient>
<linearGradient id="paint8_linear_441_3493" x1="89.8474" y1="-2.89925" x2="89.8474" y2="27.0008" gradientUnits="userSpaceOnUse">
<stop offset="0.109978" stop-color="#F40183"/>
<stop offset="1" stop-color="#7D0495"/>
</linearGradient>
<linearGradient id="paint9_linear_441_3493" x1="14.7385" y1="0" x2="14.7385" y2="30" gradientUnits="userSpaceOnUse">
<stop stop-color="#F50083"/>
<stop offset="1" stop-color="#720497"/>
</linearGradient>
</defs>
</svg>
