<svg xmlns="http://www.w3.org/2000/svg" xmlns:xlink="http://www.w3.org/1999/xlink" width="35.38842996050528" height="34" version="1.1" style=""><rect id="backgroundrect" width="100%" height="100%" x="0" y="0" fill="none" stroke="none" class="" style=""/>
    <!-- Generator: Sketch 50.2 (55047) - http://www.bohemiancoding.com/sketch -->
    <title>Group 5</title>
    <desc>Created with Sketch.</desc>
    <defs>
        <linearGradient x1="50%" y1="0%" x2="50%" y2="100%" id="linearGradient-1">
            <stop stop-color="#FF875A" offset="0%"/>
            <stop stop-color="#E42652" offset="100%"/>
        </linearGradient>
    </defs>
    
<g class="currentLayer" style=""><title>Layer 1</title><g id="Source" stroke="none" stroke-width="1" fill="none" fill-rule="evenodd" class="">
        <g id="Teamfinder-Home">
            <g id="Group-5">
                <g id="Group-4" fill="url(#linearGradient-1)">
                    <path d="M4.363473808741752,16.5471341285347 L8.518663227539662,16.5471341285347 C9.101602801062441,16.5471341285347 9.574308548913478,17.052110828534698 9.574308548913478,17.675481628534698 L9.574308548913478,24.3765894285347 C9.574308548913478,24.6756633285347 9.685505111663801,24.9628977285347 9.883348348144523,25.1749776285347 L15.531267377228126,31.214107828534697 C16.19603999519716,31.924987328534698 17.333036880259897,31.4215549285347 17.333036880259897,30.4157196285347 L17.333036880259897,2.6780338685346976 C17.333036880259897,1.6721985165346993 16.19603999519716,1.168766083534699 15.531267377228126,1.879645622534696 L3.6168682996910992,14.6198835285347 C2.9520957574692233,15.331277828534695 3.4233573931562944,16.5471341285347 4.363473808741752,16.5471341285347 " id="Fill-1"/>
                    <path d="M28.01771086883346,16.5471341285347 C27.43477127660772,16.5471341285347 26.962065500702145,17.052110828534694 26.962065500702145,17.675481628534698 L26.962065500702145,24.3765894285347 C26.962065500702145,24.675663328534696 26.85086894730334,24.9628977285347 26.65302568276809,25.1749776285347 L21.005106681739008,31.214107828534694 C20.340334063769973,31.924987328534698 19.203337178707244,31.421554928534704 19.203337178707244,30.415719628534703 L19.203337178707244,2.6780338685346976 C19.203337178707244,1.6721985165346993 20.340334063769973,1.168766083534699 21.005106681739008,1.879645622534696 L32.91950573496213,14.6198835285347 C33.58427825941618,15.331277828534695 33.113016635886034,16.5471341285347 32.17290027827992,16.5471341285347 L28.01771086883346,16.5471341285347 z" id="Fill-1-Copy"/>
                </g>
                <text id="TEAMFINDER" font-family="DIN2014-ExtraBold, DIN 2014" font-size="20" font-weight="600" letter-spacing="0.5" fill="#FFFFFF" y="-0.4531232714653015" x="3.535030866904873" transform="matrix(0.935150149223674,0,0,1,-7.915962330073967e-10,0) ">
                    <tspan x="40.745030866904855" y="23.5468767285347" id="svg_1">TEAMFINDE</tspan>
                    <tspan x="147.8450308669049" y="23.5468767285347" id="svg_2">R</tspan>
                </text>
                <text id="TM" font-family="DIN2014-ExtraBold, DIN 2014" font-size="5" font-weight="600" fill="#FFFFFF" y="-0.4531232714653015" x="3.535030866904873" transform="matrix(0.935150149223674,0,0,1,-7.915962330073967e-10,0) ">
                    <tspan x="161.66503086690489" y="4.5468767285346985" id="svg_3">TM</tspan>
                </text>
            </g>
        </g>
    </g></g></svg>