<svg id="eitIUSDv6F31" xmlns="http://www.w3.org/2000/svg" xmlns:xlink="http://www.w3.org/1999/xlink" viewBox="0 0 320 122" shape-rendering="geometricPrecision" text-rendering="geometricPrecision"><style><![CDATA[#eitIUSDv6F33_to {animation: eitIUSDv6F33_to__to 4000ms linear infinite normal forwards}@keyframes eitIUSDv6F33_to__to { 0% {transform: translate(149.72693px,66.185312px);animation-timing-function: cubic-bezier(0.25,1,0.25,1)} 42.5% {transform: translate(149.72693px,66.185312px);animation-timing-function: cubic-bezier(0.25,1,0.25,1)} 87.5% {transform: translate(57.695528px,66.185312px)} 100% {transform: translate(57.695528px,66.185312px)}} #eitIUSDv6F34 {animation: eitIUSDv6F34_s_do 4000ms linear infinite normal forwards}@keyframes eitIUSDv6F34_s_do { 0% {stroke-dashoffset: 35.18} 12.5% {stroke-dashoffset: 35.18;animation-timing-function: cubic-bezier(0.25,1,0.25,1)} 40% {stroke-dashoffset: 0} 100% {stroke-dashoffset: 0}} #eitIUSDv6F35 {animation: eitIUSDv6F35_s_do 4000ms linear infinite normal forwards}@keyframes eitIUSDv6F35_s_do { 0% {stroke-dashoffset: 35.18} 2.5% {stroke-dashoffset: 35.18;animation-timing-function: cubic-bezier(0.25,1,0.25,1)} 40% {stroke-dashoffset: 0} 100% {stroke-dashoffset: 0}} #eitIUSDv6F36 {animation: eitIUSDv6F36_s_do 4000ms linear infinite normal forwards}@keyframes eitIUSDv6F36_s_do { 0% {stroke-dashoffset: 220.19} 27.5% {stroke-dashoffset: 0} 100% {stroke-dashoffset: 0}} #eitIUSDv6F37 {animation: eitIUSDv6F37_s_do 4000ms linear infinite normal forwards}@keyframes eitIUSDv6F37_s_do { 0% {stroke-dashoffset: 108.76} 25% {stroke-dashoffset: 0} 100% {stroke-dashoffset: 0}} #eitIUSDv6F38_ts {animation: eitIUSDv6F38_ts__ts 4000ms linear infinite normal forwards}@keyframes eitIUSDv6F38_ts__ts { 0% {transform: translate(60.25px,90px) scale(0,0.037068)} 27.5% {transform: translate(60.25px,90px) scale(0,0.037068);animation-timing-function: cubic-bezier(0.25,1,0.25,1)} 42.5% {transform: translate(60.25px,90px) scale(0.933172,0.71717)} 100% {transform: translate(60.25px,90px) scale(0.933172,0.71717)}} #eitIUSDv6F39_to {animation: eitIUSDv6F39_to__to 4000ms linear infinite normal forwards}@keyframes eitIUSDv6F39_to__to { 0% {transform: translate(377.76406px,70.748144px)} 40% {transform: translate(377.76406px,70.748144px);animation-timing-function: cubic-bezier(0.25,1,0.25,1)} 80% {transform: translate(159.856142px,70.74816px)} 100% {transform: translate(159.856142px,70.74816px)}} #eitIUSDv6F39 {animation: eitIUSDv6F39_c_o 4000ms linear infinite normal forwards}@keyframes eitIUSDv6F39_c_o { 0% {opacity: 0} 47.5% {opacity: 0;animation-timing-function: cubic-bezier(0.25,1,0.25,1)} 75% {opacity: 1} 100% {opacity: 1}}]]></style><rect id="eitIUSDv6F32" display="none" width="117.083021" height="122" rx="0" ry="0" transform="matrix(2.731273 0 0 1 0.214306 0.000004)" fill="rgb(210,219,237)" stroke="none" stroke-width="0"/><g id="eitIUSDv6F33_to" transform="translate(149.72693,66.185312)"><g id="eitIUSDv6F33" transform="translate(-59.481212,-61.087642)"><path id="eitIUSDv6F34" d="M75.8,68.9C75.8,68.9,58.9,60.4,41.9,70" transform="matrix(0.876395 0 0 0.983342 7.274154 8.127982)" fill="none" stroke="rgb(249,249,249)" stroke-width="8" stroke-miterlimit="10" stroke-dashoffset="35.18" stroke-dasharray="35.18"/><path id="eitIUSDv6F35" d="M75.8,68.9C75.8,68.9,58.9,60.4,41.9,70" transform="matrix(1 0 0 1.256396 0 -18.361625)" fill="none" stroke="rgb(244,192,77)" stroke-width="8" stroke-miterlimit="10" stroke-dashoffset="35.18" stroke-dasharray="35.18"/><path id="eitIUSDv6F36" d="M53.5,47C53.5,47,34.2,62,23.5,53.3C12.8,44.6,22.3,35,22.3,35C22.3,35,31.5,27,41.9,33C51.9,38.8,74.6,53,74.6,53C74.6,53,89.5,61.9,98.1,50.7C105.1,41.8,95.6,31.9,88.4,30.8C79.6,29.5,68.4,38.1,68.4,38.1C68.4,38.1,68.4,31.4,68.1,29.1C67.9,27.6,67.1,25.1,64,24.9C61,24.6,54.9,25,54.9,25C54.9,25,50.3,24.2,50.5,30.7" fill="none" stroke="rgb(255,255,255)" stroke-width="4" stroke-linecap="round" stroke-miterlimit="10" stroke-dashoffset="220.19" stroke-dasharray="220.19"/><path id="eitIUSDv6F37" d="M39.6,63.3C39.6,63.3,58.8,52.2,78.9,63.5C76.897012,79.251957,60.3,90,60.3,90C50.3,84.6,41.2,74.2,39.6,63.3Z" fill="none" stroke="rgb(255,255,255)" stroke-width="4" stroke-linecap="round" stroke-miterlimit="10" stroke-dashoffset="108.76" stroke-dasharray="108.76"/><g id="eitIUSDv6F38_ts" transform="translate(60.25,90) scale(0,0.037068)"><polygon id="eitIUSDv6F38" points="60.3,89.6 63.4,89.6 61.8,95 60.3,100.3 58.7,95 57.1,89.6" transform="translate(-60.25,-90)" fill="rgb(255,255,255)" stroke="none" stroke-width="1"/></g></g></g><g id="eitIUSDv6F39_to" transform="translate(377.76406,70.748144)"><g id="eitIUSDv6F39" transform="scale(1.463103,1.463098) translate(-108.739603,-41.003549)" opacity="0"><path id="eitIUSDv6F310" d="M107.153,31.9484L99.6231,52.3042L96.1198,52.3042L90.2968,36.8656L84.3991,52.3042L80.8958,52.3042L73.3994,31.9484L76.8619,31.9484L82.7188,48.1561L88.8071,31.9484L91.8886,31.9484L97.8612,48.2316L103.875,31.9484L107.153,31.9484Z" fill="rgb(255,255,255)" stroke="none" stroke-width="1"/><path id="eitIUSDv6F311" d="M122.466,33.83C123.949,35.2104,124.69,37.2776,124.69,40.0109L124.69,52.3041L121.228,52.3041L121.228,49.6119C120.622,50.5597,119.752,51.2808,118.622,51.7821C117.493,52.2835,116.153,52.5307,114.609,52.5307C112.35,52.5307,110.541,51.9813,109.187,50.8825C107.827,49.7836,107.153,48.3345,107.153,46.5421C107.153,44.7496,107.8,43.3074,109.092,42.2223C110.385,41.1372,112.439,40.5878,115.255,40.5878L121.037,40.5878L121.037,39.8598C121.037,38.2734,120.581,37.0578,119.67,36.2131C118.758,35.3684,117.412,34.9426,115.636,34.9426C114.446,34.9426,113.276,35.1417,112.133,35.5401C110.99,35.9384,110.024,36.4672,109.242,37.1334L107.718,34.3657C108.759,33.521,110.004,32.8754,111.446,32.429C112.895,31.9826,114.425,31.756,116.051,31.756C118.847,31.756,120.983,32.4496,122.466,33.83ZM118.833,48.7535C119.847,48.1285,120.581,47.2357,121.037,46.082L121.037,43.2387L115.405,43.2387C112.31,43.2387,110.765,44.2895,110.765,46.391C110.765,47.4143,111.16,48.2247,111.942,48.8084C112.731,49.399,113.82,49.6943,115.214,49.6943C116.616,49.6943,117.82,49.3853,118.833,48.7535Z" fill="rgb(255,255,255)" stroke="none" stroke-width="1"/><path id="eitIUSDv6F312" d="M149.383,31.9483L149.383,49.5433C149.383,53.1007,148.506,55.7311,146.758,57.4342C145.009,59.1374,142.397,59.989,138.921,59.989C137.016,59.989,135.207,59.728,133.479,59.1992C131.751,58.6773,130.357,57.9218,129.296,56.9535L131.044,54.1103C131.983,54.9275,133.139,55.5731,134.527,56.047C135.908,56.5208,137.336,56.7543,138.805,56.7543C141.166,56.7543,142.907,56.1912,144.037,55.0649C145.166,53.9386,145.73,52.2217,145.73,49.921L145.73,48.3071C144.866,49.3579,143.812,50.1476,142.554,50.6696C141.295,51.1915,139.935,51.4594,138.465,51.4594C136.54,51.4594,134.792,51.0404,133.234,50.2094C131.676,49.3785,130.452,48.211,129.561,46.7138C128.67,45.2167,128.228,43.5066,128.228,41.5837C128.228,39.6607,128.67,37.9507,129.561,36.4535C130.445,34.9563,131.67,33.7957,133.234,32.9785C134.792,32.1612,136.54,31.7491,138.465,31.7491C139.989,31.7491,141.404,32.0307,142.71,32.5939C144.016,33.157,145.091,33.988,145.928,35.0937L145.928,31.9414L149.383,31.9414L149.383,31.9483ZM142.438,47.3937C143.492,46.8306,144.315,46.0408,144.914,45.0312C145.513,44.0217,145.805,42.8748,145.805,41.5905C145.805,39.6195,145.159,38.0262,143.866,36.8106C142.574,35.595,140.914,34.9838,138.88,34.9838C136.826,34.9838,135.152,35.595,133.86,36.8106C132.568,38.0262,131.921,39.6195,131.921,41.5905C131.921,42.8679,132.221,44.0148,132.812,45.0312C133.411,46.0408,134.234,46.8306,135.289,47.3937C136.343,47.9569,137.54,48.2384,138.887,48.2384C140.2,48.2384,141.39,47.9569,142.438,47.3937Z" fill="rgb(255,255,255)" stroke="none" stroke-width="1"/><path id="eitIUSDv6F313" d="M174.152,31.9483L174.152,49.5433C174.152,53.1007,173.274,55.7311,171.526,57.4342C169.778,59.1374,167.166,59.989,163.69,59.989C161.785,59.989,159.975,59.728,158.248,59.1992C156.52,58.6773,155.125,57.9218,154.064,56.9535L155.812,54.1103C156.751,54.9275,157.908,55.5731,159.295,56.047C160.676,56.5208,162.105,56.7543,163.574,56.7543C165.934,56.7543,167.676,56.1912,168.805,55.0649C169.934,53.9386,170.499,52.2217,170.499,49.921L170.499,48.3071C169.635,49.3579,168.581,50.1476,167.322,50.6696C166.064,51.1915,164.703,51.4594,163.234,51.4594C161.309,51.4594,159.561,51.0404,158.003,50.2094C156.445,49.3785,155.221,48.211,154.329,46.7138C153.438,45.2167,152.996,43.5066,152.996,41.5837C152.996,39.6607,153.438,37.9507,154.329,36.4535C155.214,34.9563,156.438,33.7957,158.003,32.9785C159.561,32.1612,161.309,31.7491,163.234,31.7491C164.758,31.7491,166.173,32.0307,167.479,32.5939C168.785,33.157,169.86,33.988,170.696,35.0937L170.696,31.9414L174.152,31.9414L174.152,31.9483ZM167.207,47.3937C168.261,46.8306,169.084,46.0408,169.683,45.0312C170.281,44.0217,170.574,42.8748,170.574,41.5905C170.574,39.6195,169.928,38.0262,168.635,36.8106C167.343,35.595,165.683,34.9838,163.649,34.9838C161.594,34.9838,159.921,35.595,158.629,36.8106C157.336,38.0262,156.69,39.6195,156.69,41.5905C156.69,42.8679,156.989,44.0148,157.581,45.0312C158.18,46.0408,159.003,46.8306,160.057,47.3937C161.111,47.9569,162.309,48.2384,163.656,48.2384C164.969,48.2384,166.159,47.9569,167.207,47.3937Z" fill="rgb(255,255,255)" stroke="none" stroke-width="1"/><path id="eitIUSDv6F314" d="M179.627,23.8102L183.28,23.8102L183.28,52.311L179.627,52.311L179.627,23.8102Z" fill="rgb(255,255,255)" stroke="none" stroke-width="1"/><path id="eitIUSDv6F315" d="M206.906,43.3624L190.546,43.3624C190.777,45.1549,191.552,46.5971,192.886,47.6822C194.219,48.7742,195.872,49.3167,197.851,49.3167C200.26,49.3167,202.198,48.4994,203.674,46.8581L205.688,49.2412C204.776,50.3194,203.64,51.1366,202.28,51.6998C200.919,52.2629,199.409,52.5445,197.736,52.5445C195.607,52.5445,193.715,52.105,192.069,51.219C190.423,50.3331,189.144,49.1038,188.246,47.5105C187.348,45.9241,186.893,44.1316,186.893,42.1331C186.893,40.1621,187.328,38.3834,188.205,36.7969C189.083,35.2105,190.287,33.9743,191.818,33.0884C193.355,32.2025,195.083,31.7629,197.008,31.7629C198.933,31.7629,200.654,32.2025,202.164,33.0884C203.674,33.9743,204.851,35.2105,205.702,36.7969C206.552,38.3834,206.974,40.2033,206.974,42.2499C206.987,42.5246,206.96,42.8954,206.906,43.3624ZM192.62,36.481C191.443,37.5593,190.75,38.9671,190.546,40.7046L203.484,40.7046C203.28,38.9877,202.593,37.5867,201.409,36.5016C200.232,35.4165,198.763,34.8671,197.015,34.8671C195.266,34.8671,193.804,35.4097,192.62,36.481Z" fill="rgb(255,255,255)" stroke="none" stroke-width="1"/></g></g></svg>