<svg xmlns="http://www.w3.org/2000/svg" xmlns:xlink="http://www.w3.org/1999/xlink" enable-background="new 0 0 1000 229.5" viewBox="0 0 1000 229.5" width="1000"  height="229.5" ><linearGradient id="a"><stop offset="0" stop-color="#a5784e"/><stop offset="1" stop-color="#b88d4f"/></linearGradient><linearGradient id="b" gradientUnits="userSpaceOnUse" x1="865.4618" x2="865.4618" xlink:href="#a" y1="229.5362" y2=".00089"/><linearGradient id="c" gradientUnits="userSpaceOnUse" x1="288.6818" x2="288.6818" xlink:href="#a" y1="229.5352" y2="0"/><linearGradient id="d" gradientUnits="userSpaceOnUse" x1="654.1436" x2="654.1436" xlink:href="#a" y1="75.2355" y2=".000042"/><path d="m-501-887.8h2000v2000h-2000z" fill="none"/><path d="m957 .4c-12.4 1.8-22.9 10.2-28.5 21.4l-30.3 60.7c-9.7 19.4-25.5 35.2-44.9 44.9-28.3 14.1-61.5 14.1-89.8 0l-25-12.4c-4.5-2.2-9.3 2.5-7 7l42.2 84.3c4.9 12 15.9 20.8 29.1 22.8.2 0 .4.1.7.1 1.6.2 3.3.4 4.9.4 1.7 0 3.3-.1 4.9-.4.2 0 .4-.1.7-.1 13.2-2 24.1-10.8 29.1-22.8l29.6-59.2c9.7-19.4 25.5-35.2 44.9-44.9l61.7-30.9c12.7-6.4 20.7-19.3 20.7-33.5v-.4c0-22.5-19.9-40.3-43-37" fill="url(#b)"/><path d="m455 127.4c-19.5-9.7-35.3-25.5-45-45l-29.6-59.2c-4.9-12-15.9-20.8-29.1-22.8-.2 0-.4-.1-.7-.1-1.6-.2-3.3-.4-4.9-.4-1.7 0-3.3.1-4.9.4-.2 0-.4.1-.7.1-13.2 2-24.1 10.8-29.1 22.8l-29.6 59.2c-9.7 19.4-25.5 35.2-44.9 44.9-28.3 14.1-61.5 14.1-89.8 0-19.4-9.7-35.2-25.5-44.9-44.9l-30.4-60.6c-5.6-11.2-16-19.6-28.4-21.4-23.1-3.3-43 14.5-43 37v.4c0 14.2 8 27.1 20.7 33.5l61.7 30.9c19.4 9.7 35.2 25.5 44.9 44.9l29.3 58.5c4.8 12.4 16 21.6 29.6 23.5h.3c1.6.2 3.3.4 5 .4 1.7 0 3.4-.1 5-.4h.3c13.6-1.9 24.8-11.1 29.6-23.5l29.3-58.6c9.7-19.4 25.5-35.2 44.9-44.9 28.3-14.1 61.5-14.1 89.8 0 19.4 9.7 35.2 25.5 44.9 44.9l29.6 59.2c4.9 12 15.9 20.8 29.1 22.8.2 0 .4.1.7.1 1.6.2 3.3.4 4.9.4 1.7 0 3.3-.1 4.9-.4.2 0 .4-.1.7-.1 13.2-2 24.1-10.8 29.1-22.8l42.2-84.3c2.2-4.5-2.5-9.3-7-7l-24.9 12.5c-28 14.2-61.3 14.2-89.6 0" fill="url(#c)"/><path d="m687.5 20.7c-5.5-11-15.9-18.4-27.8-20.2-.2 0-.4-.1-.7-.1-1.6-.2-3.3-.4-4.9-.4-1.7 0-3.3.1-4.9.4-.2 0-.4.1-.7.1-11.9 1.8-22.3 9.3-27.8 20.2l-1.3 2.5c-1.8 4.4-2.8 9.2-2.8 14.2v.4c0 14.2 8 27.1 20.7 33.5 10.6 5.3 23 5.3 33.6 0 12.7-6.3 20.7-19.3 20.7-33.5v-.4c0-5-1-9.8-2.8-14.2z" fill="url(#d)"/></svg>